<svg width="38" height="27" viewBox="0 0 38 27" fill="none" xmlns="http://www.w3.org/2000/svg">
<path d="M8.40385 15.9267L15.3462 22.843C15.8333 23.3283 16.0668 23.8946 16.0465 24.5417C16.0262 25.1888 15.7927 25.7551 15.3462 26.2404C14.859 26.7258 14.2804 26.9786 13.6106 26.9988C12.9407 27.019 12.3622 26.7864 11.875 26.3011L0.730769 15.1987C0.24359 14.7134 0 14.1471 0 13.5C0 12.8529 0.24359 12.2866 0.730769 11.8013L11.875 0.698904C12.3622 0.213554 12.9407 -0.0190095 13.6106 0.00121337C14.2804 0.0214363 14.859 0.274223 15.3462 0.759572C15.7927 1.24492 16.0262 1.81116 16.0465 2.4583C16.0668 3.10543 15.8333 3.67167 15.3462 4.15702L8.40385 11.0733H35.5641C36.2543 11.0733 36.8328 11.3058 37.2997 11.7709C37.7666 12.2361 38 12.8124 38 13.5C38 14.1876 37.7666 14.7639 37.2997 15.2291C36.8328 15.6942 36.2543 15.9267 35.5641 15.9267H8.40385Z" fill="white"/>
</svg>
