<svg width="126" height="112" viewBox="0 0 126 112" fill="none" xmlns="http://www.w3.org/2000/svg">
<path d="M112.205 32.2392C112.087 31.339 111.904 30.4254 111.648 29.4692C111.399 28.542 111.093 27.6302 110.716 26.7996L115.347 20.652C115.758 20.1071 115.693 19.2861 115.22 18.7917L107.102 10.6566C106.585 10.1119 105.809 10.1024 105.229 10.4753L99.0771 15.1049C97.3392 14.3905 95.5613 13.8731 93.6724 13.6339L90.6616 6.55261C90.3598 5.88814 89.6507 5.55021 88.9581 5.73578L77.877 8.70496C77.1844 8.89053 76.7681 9.53002 76.839 10.2564L77.7722 17.8944C76.2559 19.046 74.9538 20.4197 73.8271 21.8706L66.1849 20.937C65.488 20.8754 64.8286 21.3005 64.6532 22.0307L61.7191 33.1273C61.5358 33.8285 61.8531 34.5509 62.5389 34.8019L69.6236 37.8104C69.7122 38.7183 69.853 39.7054 70.0937 40.6036C70.3344 41.5018 70.6483 42.4425 71.0255 43.2731L66.3942 49.4208C65.9835 49.9657 66.0488 50.7866 66.5215 51.2811L74.6397 59.4162C75.1567 59.9609 75.9325 59.9704 76.513 59.5975L82.6645 54.9678C84.4024 55.6823 86.1803 56.1997 88.0692 56.4389L91.0801 63.5202C91.4107 64.1769 92.091 64.5226 92.7835 64.337L103.865 61.3678C104.557 61.1822 105.002 60.535 104.903 59.8164L103.969 52.1784C105.486 51.0268 106.796 49.6821 107.915 48.2021L115.557 49.1357C116.254 49.1974 116.913 48.7723 117.088 48.0421L120.051 36.9378C120.227 36.2075 119.889 35.5218 119.232 35.2631L112.205 32.2392ZM93.6658 45.4674C87.9521 46.9984 82.0195 43.557 80.4823 37.82C78.945 32.0829 82.3621 26.1364 88.0758 24.6054C93.7895 23.0744 99.7221 26.5157 101.259 32.2528C102.797 37.9898 99.3795 43.9364 93.6658 45.4674Z" fill="#467DCF"/>
<path d="M83.6175 80.5186C83.4331 79.8927 83.2006 79.2646 82.9112 78.6146C82.6306 77.9843 82.3107 77.3715 81.9493 76.8244L84.5553 71.9354C84.7865 71.502 84.6481 70.9265 84.2564 70.6288L77.57 65.7702C77.1411 65.4419 76.5882 65.5228 76.217 65.8533L72.3595 69.8363C71.0431 69.5255 69.7204 69.3591 68.3499 69.4028L65.4148 64.715C65.1257 64.2773 64.5834 64.1175 64.1115 64.3276L56.5611 67.6889C56.0892 67.899 55.8647 68.4002 55.9965 68.9079L57.5159 74.226C56.5662 75.2152 55.7938 76.3379 55.1548 77.4956L49.6137 77.6968C49.111 77.7318 48.6896 78.1082 48.6465 78.6465L47.8022 86.8578C47.7504 87.3764 48.057 87.8535 48.5731 87.9542L53.95 89.2894C54.1147 89.924 54.3255 90.609 54.5973 91.2196C54.8691 91.8302 55.1978 92.4627 55.5592 93.0099L52.9532 97.8989C52.722 98.3322 52.8605 98.9078 53.2521 99.2054L59.9385 104.064C60.3674 104.392 60.9204 104.311 61.2915 103.981L65.1491 99.998C66.4654 100.309 67.7881 100.475 69.1586 100.431L72.0938 105.119C72.4025 105.548 72.9252 105.717 73.3971 105.507L80.9475 102.145C81.4194 101.935 81.6635 101.425 81.5121 100.926L79.9927 95.6083C80.9423 94.6191 81.7235 93.5161 82.3537 92.3387L87.8948 92.1375C88.3976 92.1025 88.819 91.7261 88.862 91.1877L89.726 82.9677C89.769 82.4294 89.4515 81.9807 88.9551 81.8713L83.6175 80.5186ZM71.911 92.008C68.0179 93.7412 63.412 91.9683 61.6758 88.0684C59.9396 84.1684 61.7043 79.5595 65.5975 77.8263C69.4907 76.0931 74.0965 77.8659 75.8327 81.7659C77.569 85.6658 75.8042 90.2748 71.911 92.008Z" fill="#467DCF"/>
<path d="M37.011 26.5702C36.1327 26.3481 35.2178 26.1819 34.2366 26.0681C33.285 25.9578 32.3266 25.9068 31.4174 25.9518L27.4179 19.3815C27.0636 18.799 26.2779 18.5575 25.6454 18.815L15.1127 23.3696C14.4173 23.65 14.1231 24.3679 14.2555 25.0451L16.2876 32.4703C14.9856 33.8234 13.8517 35.2863 12.935 36.9548L5.25855 37.1478C4.53115 37.1838 3.95683 37.7188 3.87424 38.4312L2.55277 49.8295C2.47018 50.5419 2.91029 51.1644 3.61015 51.3659L11.0389 53.3101C11.5495 55.1441 12.3449 56.8608 13.2764 58.4428L9.59943 65.2061C9.28585 65.8315 9.43769 66.6011 10.0506 67.0332L19.2652 73.8471C19.8483 74.2757 20.6352 74.2466 21.1203 73.7012L26.517 68.2203C27.3918 68.4721 28.3593 68.7046 29.281 68.8115C30.2028 68.9183 31.1909 68.9727 32.1002 68.9277L36.0997 75.498C36.454 76.0806 37.2397 76.3221 37.8722 76.0645L48.4048 71.5099C49.1003 71.2296 49.3945 70.5116 49.262 69.8345L47.23 62.4093C48.532 61.0562 49.6659 59.5933 50.5825 57.9247L58.259 57.7318C58.9899 57.6661 59.5608 57.1607 59.6433 56.4483L60.9648 45.0501C61.0474 44.3377 60.6107 43.6855 59.9074 43.5137L52.4787 41.5695C51.9681 39.7354 51.2024 38.0222 50.2412 36.4368L53.9182 29.6735C54.2317 29.0481 54.0799 28.2784 53.467 27.8464L44.2559 21.0028C43.643 20.5707 42.8824 20.633 42.4007 21.1487L37.011 26.5702ZM42.4633 48.6808C41.7819 54.558 36.4074 58.8082 30.5199 58.1256C24.6325 57.4431 20.3729 52.076 21.0543 46.1987C21.7357 40.3215 27.1102 36.0714 32.9977 36.7539C38.8851 37.4365 43.1447 42.8036 42.4633 48.6808Z" fill="#467DCF"/>
</svg>
