<svg width="83" height="126" viewBox="0 0 83 126" fill="none" xmlns="http://www.w3.org/2000/svg">
<path d="M0 30.4118C0 30.4118 14.3688 27.7954 20.6271 21.6849C27.2152 15.2524 29.8829 0 29.8829 0C29.8829 0 33.2558 15.379 40.1964 21.6849C46.4704 27.3851 60.2946 29.8829 60.2946 29.8829C60.2946 29.8829 46.4335 33.7592 40.1964 39.932C33.8607 46.2024 29.8829 60.2946 29.8829 60.2946C29.8829 60.2946 26.7679 46.1442 20.6271 39.932C14.3901 33.6224 0 30.4118 0 30.4118Z" fill="#467DCF"/>
<path d="M51.6133 75.2574C51.6133 75.2574 58.8244 73.5349 61.8281 70.2649C64.9901 66.8227 65.9216 59.0179 65.9216 59.0179C65.9216 59.0179 68.0555 66.7202 71.7475 69.7252C75.0849 72.4414 82.1611 73.3262 82.1611 73.3262C82.1611 73.3262 75.2421 75.6734 72.2508 78.9743C69.2123 82.3275 67.5847 89.5804 67.5847 89.5804C67.5847 89.5804 65.6155 82.4936 62.3314 79.5141C58.9959 76.4879 51.6133 75.2574 51.6133 75.2574Z" fill="#467DCF"/>
<path d="M0 104.646C0 104.646 10.2094 102.787 14.6561 98.4451C19.3371 93.8746 21.2326 83.0374 21.2326 83.0374C21.2326 83.0374 23.6291 93.9645 28.5606 98.4451C33.0184 102.495 42.8409 104.27 42.8409 104.27C42.8409 104.27 32.9923 107.024 28.5606 111.41C24.059 115.865 21.2326 125.878 21.2326 125.878C21.2326 125.878 19.0193 115.824 14.6561 111.41C10.2245 106.927 0 104.646 0 104.646Z" fill="#467DCF"/>
</svg>
