<svg width="66" height="66" viewBox="0 0 66 66" fill="none" xmlns="http://www.w3.org/2000/svg">
<circle cx="33" cy="33" r="33" fill="#D9D9D9"/>
<path d="M32.9999 4.91492C17.4969 4.91492 4.91479 17.497 4.91479 33C4.91479 48.503 17.4969 61.0851 32.9999 61.0851C48.5029 61.0851 61.085 48.503 61.085 33C61.085 17.497 48.5029 4.91492 32.9999 4.91492ZM32.9999 16.149C38.4203 16.149 42.8297 20.5583 42.8297 25.9787C42.8297 31.3992 38.4203 35.8085 32.9999 35.8085C27.5795 35.8085 23.1701 31.3992 23.1701 25.9787C23.1701 20.5583 27.5795 16.149 32.9999 16.149ZM32.9999 55.4681C27.2986 55.4681 20.5582 53.1651 15.7556 47.3796C20.502 43.6724 26.4842 41.4256 32.9999 41.4256C39.5156 41.4256 45.4978 43.6724 50.2442 47.3796C45.4416 53.1651 38.7012 55.4681 32.9999 55.4681Z" fill="#3065EE"/>
</svg>
